<?xml version="1.0" standalone="no"?>
<!DOCTYPE svg PUBLIC "-//W3C//DTD SVG 20010904//EN"
 "http://www.w3.org/TR/2001/REC-SVG-20010904/DTD/svg10.dtd">
<svg version="1.0" xmlns="http://www.w3.org/2000/svg"
 width="642.000000pt" height="800.000000pt" viewBox="0 0 642.000000 800.000000"
 preserveAspectRatio="xMidYMid meet">

<g transform="translate(0.000000,800.000000) scale(0.100000,-0.100000)"
fill="#f50057" stroke="none">
<path d="M3022 7723 c-54 -200 -55 -422 -3 -609 56 -202 125 -354 404 -884 82
-156 101 -225 94 -340 -6 -99 -24 -155 -73 -227 -41 -60 -91 -95 -164 -117
-238 -71 -471 103 -551 409 -31 121 -29 284 6 440 34 149 38 305 12 405 -19
69 -64 170 -76 170 -4 0 -16 -46 -25 -102 -31 -176 -67 -272 -149 -392 -116
-172 -147 -224 -189 -320 -61 -139 -88 -257 -88 -390 0 -127 15 -196 61 -289
55 -110 97 -155 274 -300 220 -179 287 -259 348 -419 30 -80 32 -89 32 -233 0
-131 -3 -159 -23 -219 -85 -254 -251 -421 -473 -477 -204 -52 -431 24 -613
207 -128 128 -206 264 -254 444 -22 84 -25 116 -26 275 -2 269 27 380 212 808
163 376 207 527 219 752 5 109 -18 339 -36 358 -5 5 -16 -9 -26 -30 -239 -509
-302 -589 -761 -964 -253 -207 -315 -267 -424 -414 -119 -160 -197 -310 -264
-504 -62 -179 -79 -283 -73 -456 8 -240 53 -379 212 -663 43 -75 106 -181 141
-234 l63 -97 -92 34 c-51 18 -202 74 -337 124 -134 50 -246 89 -247 87 -2 -2
235 -210 526 -462 291 -252 530 -463 530 -469 2 -26 -124 -190 -216 -284 -118
-118 -117 -116 -83 -259 48 -198 148 -368 329 -556 77 -79 224 -206 307 -264
l31 -21 69 60 c38 33 102 76 143 97 69 34 82 37 160 37 107 0 173 -28 249
-105 78 -79 106 -145 107 -250 0 -77 -3 -92 -34 -154 -39 -80 -129 -176 -238
-255 -40 -29 -73 -56 -73 -61 0 -16 82 -130 115 -159 85 -74 176 -106 331
-117 l91 -7 5 94 c6 117 33 190 95 259 87 97 189 130 269 87 79 -41 103 -201
65 -423 -28 -161 -28 -170 9 -189 90 -47 376 -67 500 -36 57 14 130 47 130 58
0 3 -12 76 -26 162 -37 221 -25 342 40 406 56 57 135 55 228 -4 96 -61 154
-180 161 -326 l3 -80 95 3 c160 4 265 47 353 143 28 32 61 75 73 96 l22 39
-72 52 c-211 151 -307 312 -277 465 16 81 41 129 103 194 73 77 141 108 242
108 119 0 214 -43 334 -151 l49 -44 83 62 c113 83 364 335 421 423 95 147 150
278 174 416 l15 90 -124 122 c-70 69 -146 155 -175 199 l-51 76 529 463 c292
254 529 463 527 465 -2 2 -147 -50 -323 -115 -175 -65 -328 -121 -340 -125
-19 -6 -14 10 38 141 70 175 90 243 119 411 29 164 32 428 6 539 -37 159 -55
190 -436 738 -130 187 -264 387 -299 445 -154 257 -302 589 -362 810 -43 157
-39 149 -55 119 -48 -91 -80 -329 -72 -534 11 -256 72 -500 179 -709 28 -55
62 -121 74 -146 65 -132 52 -299 -39 -474 -56 -109 -131 -187 -221 -231 -170
-83 -317 -86 -473 -10 -207 102 -275 346 -173 626 16 43 71 155 124 247 152
267 175 336 183 543 9 219 -27 390 -125 584 -79 159 -102 189 -401 525 -305
343 -453 539 -568 755 -31 58 -59 105 -63 105 -4 0 -17 -35 -28 -77z m373
-6172 c97 -112 175 -205 173 -206 -2 -2 -46 -28 -98 -59 l-95 -57 -83 88 -83
88 -78 -82 c-43 -46 -84 -83 -90 -83 -10 0 -175 92 -189 105 -6 5 352 415 360
413 4 -2 87 -95 183 -207z"/>
</g>
</svg>
